<?xml version="1.0" encoding="UTF-8"?><svg version="1.1" width="30px" height="30px" viewBox="0 0 30.0 30.0" xmlns="http://www.w3.org/2000/svg" xmlns:xlink="http://www.w3.org/1999/xlink"><defs><clipPath id="i0"><path d="M21.4230769,0 C25.8413549,-1.69980292e-15 29.4230769,3.581722 29.4230769,8 L29.4230769,21.4230769 C29.4230769,25.8413549 25.8413549,29.4230769 21.4230769,29.4230769 L8,29.4230769 C3.581722,29.4230769 -3.47095419e-16,25.8413549 0,21.4230769 L0,8 C-1.42926142e-15,3.581722 3.581722,-7.65539184e-17 8,0 L21.4230769,0 Z"></path></clipPath><clipPath id="i1"><path d="M13.9942805,0 C17.4493232,0.225485108 20.4161143,1.53168171 22.8946538,3.91858981 L20.5284077,6.30774378 C14.8351333,0.676455325 5.45639013,3.47121298 3.58333654,11.2167612 C3.30215392,12.3783239 3.25768574,13.6005251 3.44993201,14.8833647 L0.144464055,15.363082 C-0.235536745,12.7363152 0.134133064,10.2097142 1.25347348,7.7832788 C3.38120846,3.17475846 7.80377096,0.313972292 12.8246326,0 L13.9942805,0 Z"></path></clipPath><clipPath id="i2"><path d="M2.36624612,0 L3.58979479,1.45127965 C3.28525514,1.74503914 2.95780765,2.0051106 2.6074523,2.23149406 C2.54726305,2.27102133 2.52076181,2.3190829 2.52794859,2.37567876 C2.4785395,2.35681347 2.43496967,2.36130521 2.39723909,2.38915397 C1.93818375,2.74040766 1.47957758,3.08672045 1.02142059,3.42809232 C0.987023522,3.45334228 0.939025416,3.44807419 0.910923904,3.41596464 L0,2.38915397 L2.36624612,0 Z"></path></clipPath><clipPath id="i3"><path d="M2.66924061,0.0418018083 C3.44720915,1.10005463 4.07200952,2.2423029 4.54364172,3.46854661 C4.56071031,3.51256562 4.54678593,3.54310942 4.50186858,3.56017801 L2.78782242,4.20564036 L1.38370599,4.69613785 C1.0594027,3.72412635 0.598550669,2.8477888 0.00114988422,2.06712522 C-0.00603689214,2.01052936 0.0204643457,1.96246779 0.0806535977,1.92294052 C0.431008945,1.69655707 0.758456443,1.4364856 1.06299609,1.14272611 L2.54526872,0.0229365203 C2.59288111,-0.0129973615 2.63420507,-0.00670893219 2.66924061,0.0418018083 Z"></path></clipPath><clipPath id="i4"><path d="M3.50355348,0 C5.00334387,3.68681627 4.7365348,7.72533542 2.93220476,11.2181087 L0,9.66172247 C1.36009743,6.92176398 1.50068874,4.11847203 0.421773938,1.25184661 C0.40815848,1.21771884 0.424943332,1.178754 0.459504514,1.16425777 L2.09943704,0.490497487 L3.50355348,0 Z"></path></clipPath><clipPath id="i5"><path d="M3.30546795,0 L3.44695761,0.843547875 L0.230426017,1.61028708 L0,0.479717322 L3.30546795,0 Z"></path></clipPath><clipPath id="i6"><path d="M3.2165316,0 L3.46986546,0.817944985 C3.48308167,0.860349436 3.4596163,0.905475156 3.41731216,0.919009027 L1.58468419,1.50652799 C1.16066438,1.62870319 0.791443747,1.74234409 0.477022281,1.8474507 C0.417731376,1.86721433 0.355296256,1.86137508 0.289716922,1.82993293 L0,0.766739203 L3.2165316,0 Z"></path></clipPath><clipPath id="i7"><path d="M3.19982993,0 C3.57713569,1.29002636 4.16869722,2.4479957 4.97451452,3.47390802 L3.93422864,4.29724309 L2.46004114,5.47093351 C2.43339962,5.49244791 2.39915993,5.50227787 2.36497493,5.49822632 C2.33078993,5.49417476 2.29950978,5.47657948 2.27812586,5.44937318 C1.24592511,4.11442947 0.488169376,2.63754692 0.00485866571,1.01872555 C-0.00951488701,0.970214809 0.00800288037,0.939221836 0.0574119679,0.92574663 C0.651219365,0.762247468 1.25221354,0.586620621 1.86039449,0.398866088 C1.89093829,0.389882618 1.90576101,0.3647289 1.90486267,0.323404936 C1.970442,0.354847083 2.03287712,0.360686339 2.09216803,0.340922704 C2.40658949,0.235816099 2.77581013,0.122175198 3.19982993,0 Z"></path></clipPath><clipPath id="i8"><path d="M4.25681747,0 L7.18902223,1.55638626 C5.90797934,4.01336542 4.04166336,5.89091075 1.59007427,7.18902223 C1.57795771,7.19563156 1.56368614,7.19706974 1.55049451,7.19301078 C1.53730289,7.18895182 1.5263084,7.17973947 1.5200032,7.1674619 L0.530923104,5.27958558 L0,4.25816499 C1.85239161,3.2520163 3.27133077,1.83262797 4.25681747,0 Z"></path></clipPath><clipPath id="i9"><path d="M2.76106964,0.0468032829 C4.02414559,1.65125111 5.6101773,2.78990599 7.51916477,3.46276792 L6.48426897,6.63483134 C3.85929891,5.71672066 1.69787592,4.17111457 0,1.99801306 L1.04028588,1.174678 L2.59262957,0.0238954332 C2.64522113,-0.0153698544 2.71986722,-0.00521798619 2.76106964,0.0468032829 Z"></path></clipPath><clipPath id="i10"><path d="M1.232235,0.0360336981 L2.1889746,1.97107323 L2.71989771,2.99249382 L1.01663171,3.6595165 L0.689184212,2.61653559 L0.00599128376,0.565609281 C-0.00928061601,0.521590276 0.00464376319,0.490597303 0.0477644214,0.472630362 L1.15407881,0.00638824565 C1.18911434,-0.00798530707 1.21516641,0.00189651043 1.232235,0.0360336981 Z"></path></clipPath><clipPath id="i11"><path d="M1.0348958,0 C3.14331631,0.693523919 5.26655955,0.694422266 7.40462552,0.00269504114 L7.73207302,1.04567596 L8.41796099,3.04539648 C8.44940313,3.13433284 8.41975768,3.19182705 8.32902463,3.21787912 C5.95199835,3.89298692 3.63695801,3.96979559 1.17503794,3.49681587 C0.899245392,3.4438134 0.507566081,3.33556258 0,3.17206342 L1.0348958,0 Z"></path></clipPath></defs><g transform="translate(0.5769230769230766 0.0)"><g clip-path="url(#i0)"><polygon points="0,0 29.4230769,0 29.4230769,29.4230769 0,29.4230769 0,0" stroke="none" fill="#160536"></polygon></g></g><g transform="translate(0.5769230769230766 1.1538461538461533)"><g transform="translate(1.384719727102068 3.9185898110650985)"><g transform="translate(20.383943628604456 0.0)"><path d="M2.36624612,0 L0,2.38915397" stroke="#83A264" stroke-width="1" fill="none" stroke-miterlimit="10"></path></g><g transform="translate(-4.440892098500626e-16 10.96477485991634)"><path d="M3.30546795,0 L0,0.479717322" stroke="#E97541" stroke-width="1" fill="none" stroke-miterlimit="10"></path></g><g transform="translate(22.91074232951666 1.451279651484564)"><path d="M1.06299609,0 C0.758456443,0.293759484 0.431008945,0.553830953 0.0806535977,0.780214409 C0.0204643457,0.819741679 -0.00603689214,0.867803246 0.00114988422,0.924399109" stroke="#1D8E79" stroke-width="1" fill="none" stroke-miterlimit="10"></path></g><g transform="translate(24.294448316262958 4.514193902017908)"><path d="M1.40411643,0 L0,0.490497487" stroke="#8C6969" stroke-width="1" fill="none" stroke-miterlimit="10"></path></g><g transform="translate(22.195011271682688 14.175916372904002)"><path d="M2.93220476,1.55638626 L0,0" stroke="#7849B7" stroke-width="1" fill="none" stroke-miterlimit="10"></path></g><g transform="translate(0.23042601708807786 11.80832273533819)"><path d="M3.2165316,0 L0,0.766739203" stroke="#E75741" stroke-width="1" fill="none" stroke-miterlimit="10"></path></g><g transform="translate(0.5201429391578839 13.314850730101181)"><path d="M1.29496727,0 C0.87094746,0.122175198 0.501726825,0.235816099 0.187305359,0.340922704 C0.128014454,0.360686339 0.0655793343,0.354847083 0,0.323404936" stroke="#96A316" stroke-width="1" fill="none" stroke-miterlimit="10"></path></g><g transform="translate(2.549508914214294 16.788758753803318)"><path d="M1.04028588,0 L0,0.823335067" stroke="#3C645D" stroke-width="1" fill="none" stroke-miterlimit="10"></path></g><g transform="translate(17.93819379810819 18.434081367046268)"><path d="M0.530923104,1.02142059 L0,0" stroke="#838364" stroke-width="1" fill="none" stroke-miterlimit="10"></path></g><g transform="translate(9.033777886306886 19.076848677870906)"><path d="M1.0348958,0 L0,3.17206342" stroke="#A37847" stroke-width="1" fill="none" stroke-miterlimit="10"></path></g><g transform="translate(16.43840340618403 19.07954371900643)"><path d="M0.327447498,1.04298092 L0,0" stroke="#FEB800" stroke-width="1" fill="none" stroke-miterlimit="10"></path></g></g><g transform="translate(1.2402556721770228 0.0)"><g clip-path="url(#i1)"><polygon points="-9.77246059e-17,0 22.8946538,0 22.8946538,15.363082 -9.77246059e-17,15.363082 -9.77246059e-17,0" stroke="none" fill="#FFD600"></polygon></g></g><g transform="translate(21.768663355706522 3.9185898110650994)"><g clip-path="url(#i2)"><polygon points="0,0 3.58979479,0 3.58979479,3.44403131 0,3.44403131 0,0" stroke="none" fill="#096EC7"></polygon></g></g><g transform="translate(24.295462056618724 4.227143350433259)"><g clip-path="url(#i3)"><polygon points="6.1335398e-16,-2.23766033e-16 4.55069179,-2.23766033e-16 4.55069179,4.69613785 6.1335398e-16,4.69613785 6.1335398e-16,-2.23766033e-16" stroke="none" fill="#30AE2B"></polygon></g></g><g transform="translate(23.579730998784754 8.432783713083008)"><g clip-path="url(#i4)"><polygon points="0,0 4.47679897,0 4.47679897,11.2181087 0,11.2181087 0,0" stroke="none" fill="#E726A6"></polygon></g></g><g transform="translate(1.384719727102067 14.883364670981443)"><g clip-path="url(#i5)"><polygon points="0,0 3.44695761,0 3.44695761,1.61028708 0,1.61028708 0,0" stroke="none" fill="#D21483"></polygon></g></g><g transform="translate(1.6151457441901447 15.726912546403291)"><g clip-path="url(#i6)"><polygon points="0,0 3.47354861,0 3.47354861,1.8588928 0,1.8588928 0,0" stroke="none" fill="#FC9900"></polygon></g></g><g transform="translate(-4.440892098500626e-16 17.233440541166285)"><g clip-path="url(#i7)"><polygon points="2.05754683e-17,0 4.97451452,0 4.97451452,5.49912015 2.05754683e-17,5.49912015 2.05754683e-17,0" stroke="none" fill="#30AE2B"></polygon></g></g><g transform="translate(19.322913525210247 18.094506183969106)"><g clip-path="url(#i8)"><polygon points="0,0 7.18902223,0 7.18902223,7.19527524 0,7.19527524 0,0" stroke="none" fill="#096EC7"></polygon></g></g><g transform="translate(3.934228641316359 19.53267056678026)"><g clip-path="url(#i9)"><polygon points="0,6.93489707e-16 7.51916477,6.93489707e-16 7.51916477,6.63483134 0,6.63483134 0,6.93489707e-16" stroke="none" fill="#48198E"></polygon></g></g><g transform="translate(17.13393892167331 20.38159794465316)"><g clip-path="url(#i10)"><polygon points="2.07585597e-16,1.89563902e-15 2.71989771,1.89563902e-15 2.71989771,3.6595165 2.07585597e-16,3.6595165 2.07585597e-16,1.89563902e-15" stroke="none" fill="#FC9900"></polygon></g></g><g transform="translate(10.418497613408949 22.995438488936003)"><g clip-path="url(#i11)"><polygon points="0,0 8.43009858,0 8.43009858,3.79823713 0,3.79823713 0,0" stroke="none" fill="#FFD600"></polygon></g></g></g></svg>
